PathFileType	4	(X/Y/Z)	c:/Users/goper/Files/vsCode/490R/osim_files/A03/A03_SSWS_01.trc
DataRate	CameraRate	NumFrames	NumMarkers	Units                	OrigDataRate	OrigDataStartFrame	OrigNumFrames
250.00	250.00	6	36	mm	250.0	2197	2929
                Frame#	Time	LPSIS			LASIS			LTH1			LTH2			LTH3			LTH4			LLFE			LMFE			LSH1			LSH2			LSH3			LSH4			LLMAL			LMMAL			LCAL			LMTP5			LTOE			LMTP1			RPSIS			RASIS			RTH1			RTH2			RTH3			RTH4			RLFE			RMFE			RSH1			RSH2			RSH3			RSH4			RLMAL			RMMAL			RCAL			RMTP1			RTOE			RMTP5		
		X1	Y1	Z1	X2	Y2	Z2	X3	Y3	Z3	X4	Y4	Z4	X5	Y5	Z5	X6	Y6	Z6	X7	Y7	Z7	X8	Y8	Z8	X9	Y9	Z9	X10	Y10	Z10	X11	Y11	Z11	X12	Y12	Z12	X13	Y13	Z13	X14	Y14	Z14	X15	Y15	Z15	X16	Y16	Z16	X17	Y17	Z17	X18	Y18	Z18	X19	Y19	Z19	X20	Y20	Z20	X21	Y21	Z21	X22	Y22	Z22	X23	Y23	Z23	X24	Y24	Z24	X25	Y25	Z25	X26	Y26	Z26	X27	Y27	Z27	X28	Y28	Z28	X29	Y29	Z29	X30	Y30	Z30	X31	Y31	Z31	X32	Y32	Z32	X33	Y33	Z33	X34	Y34	Z34	X35	Y35	Z35	X36	Y36	Z36

2197	8.78400	-3263.18726	1050.57532	378.36990	0.00000	0.00000	0.00000	-3564.11792	639.55890	548.18323	-3589.11963	604.06561	547.83099	-3616.97852	665.91034	527.49011	-3631.88184	624.91870	528.05359	-3595.22266	554.81964	538.34705	-3615.12769	554.82660	383.42999	-3565.02686	463.70062	536.62183	-3571.33984	416.22260	533.79340	-3626.10620	466.65338	529.83905	-3623.42676	418.84631	525.16962	-3606.45874	99.27979	495.12543	-3610.21582	107.62589	401.30219	-3532.15332	84.39819	446.13675	0.00000	0.00000	0.00000	0.00000	0.00000	0.00000	-3753.71729	62.38574	384.70157	-3262.19849	1060.30298	295.73914	-3486.21313	944.25024	191.45406	0.00000	0.00000	0.00000	-3335.31104	557.71533	129.25804	-3401.41040	588.00116	124.14546	-3388.81714	546.06384	128.71820	-3347.11328	516.23682	141.23177	0.00000	0.00000	0.00000	-3265.83813	497.33762	141.46541	-3235.57227	468.00961	129.95731	-3306.36157	450.30185	135.67059	0.00000	0.00000	0.00000	-3033.36206	227.74463	182.99185	-3056.89062	195.53696	265.84036	-2962.97705	237.44437	241.55611	-3083.89111	66.27231	288.68466	-3119.56616	67.99141	239.35471	-3072.72412	60.83404	170.74722
2198	8.78800	-3269.10889	1051.02661	379.25769	0.00000	0.00000	0.00000	-3567.67798	639.73328	548.57678	-3592.41406	604.06537	548.24011	-3620.63843	665.78351	527.96527	-3635.30835	624.68805	528.57910	-3598.63232	554.90118	538.70361	-3618.52051	554.91693	383.78171	-3566.58325	464.12180	536.01910	-3575.04248	416.34311	534.60822	-3628.91333	466.59293	530.09070	-3626.01855	418.85989	525.43536	-3606.66895	99.33890	495.11542	-3610.39380	107.66758	401.35858	-3532.29565	84.57790	446.13361	0.00000	0.00000	0.00000	0.00000	0.00000	0.00000	-3753.73462	62.07493	384.68121	-3267.17603	1060.77246	296.25601	-3491.44556	945.51196	192.05412	-3351.13013	602.30829	125.33383	-3344.63208	557.95123	129.07457	-3410.44019	588.57794	124.09452	-3398.10034	546.58167	128.66739	-3356.56665	516.60443	141.17426	0.00000	0.00000	0.00000	-3273.40088	498.50882	140.42841	-3244.88574	469.29486	129.51201	-3315.43384	450.98917	135.58130	0.00000	0.00000	0.00000	-3040.30420	232.11134	183.41478	0.00000	0.00000	0.00000	-2970.67065	244.06352	241.68675	-3087.10156	69.27177	288.47992	-3122.80054	69.27286	238.86525	-3075.20386	63.56019	170.69331
2199	8.79200	-3273.34741	1052.29712	379.82556	0.00000	0.00000	0.00000	-3571.20898	639.89417	548.85913	-3595.83228	604.14276	548.57843	-3624.25562	665.67322	528.26129	-3638.74878	624.52368	528.90503	-3604.55103	556.34399	540.76703	-3621.86694	555.03735	384.02417	-3570.66650	464.38708	537.16351	-3576.38672	416.77542	534.28949	-3631.70532	466.52731	530.28217	-3628.45435	418.80164	525.57013	-3606.83521	99.44659	495.10739	-3610.56470	107.67198	401.36987	-3532.45020	84.70251	446.14517	0.00000	0.00000	0.00000	0.00000	0.00000	0.00000	-3753.92578	61.88115	384.68069	-3270.73975	1062.00745	296.08029	-3496.70996	946.75781	192.67038	-3360.20557	602.64490	125.21454	-3353.95020	558.25079	128.93921	-3419.64941	589.31805	124.11589	-3407.53833	547.21930	128.64584	-3366.11646	517.07690	141.15739	-3407.98120	500.84402	257.56586	-3283.40332	499.54816	140.39127	-3255.25684	470.59888	129.73637	-3324.71924	451.70700	135.49388	0.00000	0.00000	0.00000	-3047.48877	236.62469	183.89316	0.00000	0.00000	0.00000	-2978.55176	250.76732	241.87927	-3090.11743	72.23138	288.33124	-3126.10718	70.62615	238.51062	-3078.38770	66.51823	170.71313
2200	8.79600	-3278.80737	1052.92139	380.07217	0.00000	0.00000	0.00000	-3574.78735	640.12213	549.02753	-3599.18188	604.24219	548.76923	-3627.87451	665.58423	528.41577	-3642.16528	624.35590	529.08875	-3605.33691	555.20074	539.09424	-3625.11572	555.10699	384.14157	-3572.09863	464.78470	536.36481	-3578.63086	417.18628	533.87628	-3634.45801	466.47177	530.37317	-3630.91064	418.80380	525.69556	-3607.04785	99.52639	495.05179	-3610.75024	107.69067	401.34192	-3532.55322	84.87878	446.12823	0.00000	0.00000	0.00000	0.00000	0.00000	0.00000	-3754.00415	61.54624	384.59332	-3276.90918	1061.82800	297.02618	-3501.95630	947.99091	193.37758	-3369.25342	602.91418	125.12695	-3363.37231	558.62360	128.80055	-3428.84253	590.05621	124.14970	-3416.99609	547.88641	128.63173	-3375.72876	517.50000	141.09186	0.00000	0.00000	0.00000	-3292.98486	500.69504	139.68163	-3264.82910	471.89081	129.41321	-3334.04346	452.42810	135.52180	0.00000	0.00000	0.00000	-3054.64038	241.16458	184.42778	-3076.04395	207.18486	267.44443	-2986.73999	257.43414	242.07835	-3094.32812	75.84892	287.89731	-3129.38403	72.10139	238.30582	-3081.35815	69.71488	170.75232
2201	8.80000	-3282.40332	1054.38684	380.39813	0.00000	0.00000	0.00000	-3578.21411	640.27423	549.04016	-3602.49609	604.33624	548.82050	-3631.49341	665.53253	528.48151	-3645.57544	624.24469	529.17670	-3608.60181	555.30573	539.14087	-3628.31763	555.15259	384.22147	-3575.20239	465.06287	537.18140	-3581.04956	417.54425	533.91431	-3637.14990	466.44553	530.39948	-3633.37646	418.83792	525.73633	-3607.23218	99.65464	494.97229	-3610.87915	107.69534	401.33450	-3532.74707	85.06602	446.11334	0.00000	0.00000	0.00000	0.00000	0.00000	0.00000	-3754.04053	61.23650	384.50803	-3280.93726	1062.84509	297.61105	-3506.73364	948.93201	193.99265	0.00000	0.00000	0.00000	-3372.81201	559.00836	128.67422	-3438.03491	590.82599	124.23392	-3426.55957	548.65344	128.66833	-3385.42554	518.05023	141.08296	0.00000	0.00000	0.00000	-3303.22705	501.77393	139.67033	-3273.82178	473.23465	128.62358	-3343.48926	453.15833	135.47542	0.00000	0.00000	0.00000	-3061.87891	245.75925	185.06625	0.00000	0.00000	0.00000	-2995.21289	264.07162	242.38832	-3097.69751	78.77595	287.80203	-3133.22266	73.36040	237.82593	-3084.56982	73.08381	170.75616
2202	8.80400	-3287.31445	1055.26306	380.94833	0.00000	0.00000	0.00000	-3581.83740	640.58020	549.10760	-3605.87476	604.45319	548.86304	-3635.10693	665.50110	528.45758	-3649.00244	624.14117	529.15668	-3611.88892	555.44971	539.22333	-3631.47925	555.20483	384.21832	-3577.54419	465.55145	536.42761	-3583.68628	417.73227	534.49738	-3639.82178	466.42859	530.37238	-3635.71021	418.80594	525.67822	-3607.46997	99.76968	494.89154	-3611.06885	107.74374	401.27594	-3532.87280	85.20679	446.11856	0.00000	0.00000	0.00000	0.00000	0.00000	0.00000	-3754.17285	60.97194	384.41058	-3286.63599	1062.99304	297.96997	-3510.65088	949.30212	194.61501	-3387.77539	603.97827	124.92901	-3382.36475	559.51019	128.55870	-3447.48193	591.86670	124.26064	-3436.11743	549.49969	128.68202	-3395.19824	518.68665	141.01111	0.00000	0.00000	0.00000	-3313.20410	502.94989	139.36476	-3284.35620	474.56085	128.87328	-3353.01147	453.96625	135.49716	0.00000	0.00000	0.00000	-3069.36328	250.37239	185.63885	0.00000	0.00000	0.00000	-3004.03784	270.55429	242.76900	-3101.91943	81.94558	287.45355	-3136.88330	74.76861	237.63300	-3088.10132	76.42908	170.78813
